<?xml version="1.0" encoding="UTF-8" standalone="no"?>
<!DOCTYPE svg PUBLIC "-//W3C//DTD SVG 1.0//EN" "http://www.w3.org/TR/2001/REC-SVG-20010904/DTD/svg10.dtd">
<!-- Generated by dot version 2.8 (Wed Dec 20 14:50:18 UTC 2006)
     For user: (keenan) Keenan Pepper,,, -->
<!-- Title: _anonymous_0 Pages: 1 -->
<svg width="314pt" height="836pt" viewBox="0 0 314 836" xmlns="http://www.w3.org/2000/svg" xmlns:xlink="http://www.w3.org/1999/xlink">
<g id="graph0" class="graph" style="font-family:Times-Roman;font-size:14.00;">
<title>_anonymous_0</title>
<polygon style="fill:white;stroke:white;" points="-2,838 -2,-2 316,-2 316,838 -2,838"/>
<!-- 3 -->
<g id="node1" class="node"><title>3</title>
<ellipse style="fill:none;stroke:black;" cx="139" cy="670" rx="27" ry="18"/>
<text text-anchor="middle" x="139" y="675">3</text>
</g>
<!-- 5 -->
<g id="node3" class="node"><title>5</title>
<ellipse style="fill:none;stroke:black;" cx="211" cy="742" rx="27" ry="18"/>
<text text-anchor="middle" x="211" y="747">5</text>
</g>
<!-- 3&#45;&gt;5 -->
<g id="edge2" class="edge"><title>3-&gt;5</title>
<path style="fill:none;stroke:black;" d="M154,685C164,695 177,708 189,720"/>
<polygon style="fill:black;stroke:black;" points="191,717 196,727 186,722 191,717"/>
</g>
<!-- 1 -->
<g id="node4" class="node"><title>1</title>
<ellipse style="fill:none;stroke:black;" cx="247" cy="814" rx="27" ry="18"/>
<text text-anchor="middle" x="247" y="819">1</text>
</g>
<!-- 5&#45;&gt;1 -->
<g id="edge3" class="edge"><title>5-&gt;1</title>
<path style="fill:none;stroke:black;" d="M220,759C224,768 229,778 234,788"/>
<polygon style="fill:black;stroke:black;" points="237,786 238,797 231,789 237,786"/>
</g>
<!-- 7 -->
<g id="node5" class="node"><title>7</title>
<ellipse style="fill:none;stroke:black;" cx="103" cy="454" rx="27" ry="18"/>
<text text-anchor="middle" x="103" y="459">7</text>
</g>
<!-- 11 -->
<g id="node7" class="node"><title>11</title>
<ellipse style="fill:none;stroke:black;" cx="139" cy="526" rx="27" ry="18"/>
<text text-anchor="middle" x="139" y="531">11</text>
</g>
<!-- 7&#45;&gt;11 -->
<g id="edge5" class="edge"><title>7-&gt;11</title>
<path style="fill:none;stroke:black;" d="M112,471C116,480 121,490 126,500"/>
<polygon style="fill:black;stroke:black;" points="129,498 130,509 123,501 129,498"/>
</g>
<!-- 17 -->
<g id="node8" class="node"><title>17</title>
<ellipse style="fill:none;stroke:black;" cx="211" cy="598" rx="27" ry="18"/>
<text text-anchor="middle" x="211" y="603">17</text>
</g>
<!-- 11&#45;&gt;17 -->
<g id="edge6" class="edge"><title>11-&gt;17</title>
<path style="fill:none;stroke:black;" d="M154,541C164,551 177,564 189,576"/>
<polygon style="fill:black;stroke:black;" points="191,573 196,583 186,578 191,573"/>
</g>
<!-- 13 -->
<g id="node9" class="node"><title>13</title>
<ellipse style="fill:none;stroke:black;" cx="211" cy="670" rx="27" ry="18"/>
<text text-anchor="middle" x="211" y="675">13</text>
</g>
<!-- 17&#45;&gt;13 -->
<g id="edge7" class="edge"><title>17-&gt;13</title>
<path style="fill:none;stroke:black;" d="M211,616C211,624 211,633 211,642"/>
<polygon style="fill:black;stroke:black;" points="215,642 211,652 208,642 215,642"/>
</g>
<!-- 13&#45;&gt;5 -->
<g id="edge8" class="edge"><title>13-&gt;5</title>
<path style="fill:none;stroke:black;" d="M211,688C211,696 211,705 211,714"/>
<polygon style="fill:black;stroke:black;" points="215,714 211,724 208,714 215,714"/>
</g>
<!-- 9 -->
<g id="node10" class="node"><title>9</title>
<ellipse style="fill:none;stroke:black;" cx="31" cy="382" rx="27" ry="18"/>
<text text-anchor="middle" x="31" y="387">9</text>
</g>
<!-- 9&#45;&gt;7 -->
<g id="edge10" class="edge"><title>9-&gt;7</title>
<path style="fill:none;stroke:black;" d="M46,397C56,407 69,420 81,432"/>
<polygon style="fill:black;stroke:black;" points="83,429 88,439 78,434 83,429"/>
</g>
<!-- 15 -->
<g id="node12" class="node"><title>15</title>
<ellipse style="fill:none;stroke:black;" cx="283" cy="454" rx="27" ry="18"/>
<text text-anchor="middle" x="283" y="459">15</text>
</g>
<!-- 23 -->
<g id="node14" class="node"><title>23</title>
<ellipse style="fill:none;stroke:black;" cx="283" cy="526" rx="27" ry="18"/>
<text text-anchor="middle" x="283" y="531">23</text>
</g>
<!-- 15&#45;&gt;23 -->
<g id="edge12" class="edge"><title>15-&gt;23</title>
<path style="fill:none;stroke:black;" d="M283,472C283,480 283,489 283,498"/>
<polygon style="fill:black;stroke:black;" points="287,498 283,508 280,498 287,498"/>
</g>
<!-- 35 -->
<g id="node15" class="node"><title>35</title>
<ellipse style="fill:none;stroke:black;" cx="283" cy="598" rx="27" ry="18"/>
<text text-anchor="middle" x="283" y="603">35</text>
</g>
<!-- 23&#45;&gt;35 -->
<g id="edge13" class="edge"><title>23-&gt;35</title>
<path style="fill:none;stroke:black;" d="M283,544C283,552 283,561 283,570"/>
<polygon style="fill:black;stroke:black;" points="287,570 283,580 280,570 287,570"/>
</g>
<!-- 53 -->
<g id="node16" class="node"><title>53</title>
<ellipse style="fill:none;stroke:black;" cx="283" cy="670" rx="27" ry="18"/>
<text text-anchor="middle" x="283" y="675">53</text>
</g>
<!-- 35&#45;&gt;53 -->
<g id="edge14" class="edge"><title>35-&gt;53</title>
<path style="fill:none;stroke:black;" d="M283,616C283,624 283,633 283,642"/>
<polygon style="fill:black;stroke:black;" points="287,642 283,652 280,642 287,642"/>
</g>
<!-- 53&#45;&gt;5 -->
<g id="edge15" class="edge"><title>53-&gt;5</title>
<path style="fill:none;stroke:black;" d="M268,685C258,695 245,708 233,720"/>
<polygon style="fill:black;stroke:black;" points="236,722 226,727 231,717 236,722"/>
</g>
<!-- 19 -->
<g id="node17" class="node"><title>19</title>
<ellipse style="fill:none;stroke:black;" cx="175" cy="382" rx="27" ry="18"/>
<text text-anchor="middle" x="175" y="387">19</text>
</g>
<!-- 29 -->
<g id="node19" class="node"><title>29</title>
<ellipse style="fill:none;stroke:black;" cx="175" cy="454" rx="27" ry="18"/>
<text text-anchor="middle" x="175" y="459">29</text>
</g>
<!-- 19&#45;&gt;29 -->
<g id="edge17" class="edge"><title>19-&gt;29</title>
<path style="fill:none;stroke:black;" d="M175,400C175,408 175,417 175,426"/>
<polygon style="fill:black;stroke:black;" points="179,426 175,436 172,426 179,426"/>
</g>
<!-- 29&#45;&gt;11 -->
<g id="edge18" class="edge"><title>29-&gt;11</title>
<path style="fill:none;stroke:black;" d="M166,471C162,480 157,490 152,500"/>
<polygon style="fill:black;stroke:black;" points="155,501 148,509 149,498 155,501"/>
</g>
<!-- 21 -->
<g id="node20" class="node"><title>21</title>
<ellipse style="fill:none;stroke:black;" cx="283" cy="742" rx="27" ry="18"/>
<text text-anchor="middle" x="283" y="747">21</text>
</g>
<!-- 21&#45;&gt;1 -->
<g id="edge20" class="edge"><title>21-&gt;1</title>
<path style="fill:none;stroke:black;" d="M274,759C270,768 265,778 260,788"/>
<polygon style="fill:black;stroke:black;" points="263,789 256,797 257,786 263,789"/>
</g>
<!-- 25 -->
<g id="node22" class="node"><title>25</title>
<ellipse style="fill:none;stroke:black;" cx="175" cy="310" rx="27" ry="18"/>
<text text-anchor="middle" x="175" y="315">25</text>
</g>
<!-- 25&#45;&gt;19 -->
<g id="edge22" class="edge"><title>25-&gt;19</title>
<path style="fill:none;stroke:black;" d="M175,328C175,336 175,345 175,354"/>
<polygon style="fill:black;stroke:black;" points="179,354 175,364 172,354 179,354"/>
</g>
<!-- 33 -->
<g id="node24" class="node"><title>33</title>
<ellipse style="fill:none;stroke:black;" cx="175" cy="238" rx="27" ry="18"/>
<text text-anchor="middle" x="175" y="243">33</text>
</g>
<!-- 33&#45;&gt;25 -->
<g id="edge24" class="edge"><title>33-&gt;25</title>
<path style="fill:none;stroke:black;" d="M175,256C175,264 175,273 175,282"/>
<polygon style="fill:black;stroke:black;" points="179,282 175,292 172,282 179,282"/>
</g>
<!-- 37 -->
<g id="node26" class="node"><title>37</title>
<ellipse style="fill:none;stroke:black;" cx="103" cy="382" rx="27" ry="18"/>
<text text-anchor="middle" x="103" y="387">37</text>
</g>
<!-- 37&#45;&gt;7 -->
<g id="edge26" class="edge"><title>37-&gt;7</title>
<path style="fill:none;stroke:black;" d="M103,400C103,408 103,417 103,426"/>
<polygon style="fill:black;stroke:black;" points="107,426 103,436 100,426 107,426"/>
</g>
<!-- 39 -->
<g id="node28" class="node"><title>39</title>
<ellipse style="fill:none;stroke:black;" cx="247" cy="22" rx="27" ry="18"/>
<text text-anchor="middle" x="247" y="27">39</text>
</g>
<!-- 59 -->
<g id="node30" class="node"><title>59</title>
<ellipse style="fill:none;stroke:black;" cx="247" cy="94" rx="27" ry="18"/>
<text text-anchor="middle" x="247" y="99">59</text>
</g>
<!-- 39&#45;&gt;59 -->
<g id="edge28" class="edge"><title>39-&gt;59</title>
<path style="fill:none;stroke:black;" d="M247,40C247,48 247,57 247,66"/>
<polygon style="fill:black;stroke:black;" points="251,66 247,76 244,66 251,66"/>
</g>
<!-- 89 -->
<g id="node31" class="node"><title>89</title>
<ellipse style="fill:none;stroke:black;" cx="247" cy="166" rx="27" ry="18"/>
<text text-anchor="middle" x="247" y="171">89</text>
</g>
<!-- 59&#45;&gt;89 -->
<g id="edge29" class="edge"><title>59-&gt;89</title>
<path style="fill:none;stroke:black;" d="M247,112C247,120 247,129 247,138"/>
<polygon style="fill:black;stroke:black;" points="251,138 247,148 244,138 251,138"/>
</g>
<!-- 67 -->
<g id="node32" class="node"><title>67</title>
<ellipse style="fill:none;stroke:black;" cx="247" cy="238" rx="27" ry="18"/>
<text text-anchor="middle" x="247" y="243">67</text>
</g>
<!-- 89&#45;&gt;67 -->
<g id="edge30" class="edge"><title>89-&gt;67</title>
<path style="fill:none;stroke:black;" d="M247,184C247,192 247,201 247,210"/>
<polygon style="fill:black;stroke:black;" points="251,210 247,220 244,210 251,210"/>
</g>
<!-- 101 -->
<g id="node33" class="node"><title>101</title>
<ellipse style="fill:none;stroke:black;" cx="247" cy="310" rx="27" ry="18"/>
<text text-anchor="middle" x="247" y="315">101</text>
</g>
<!-- 67&#45;&gt;101 -->
<g id="edge31" class="edge"><title>67-&gt;101</title>
<path style="fill:none;stroke:black;" d="M247,256C247,264 247,273 247,282"/>
<polygon style="fill:black;stroke:black;" points="251,282 247,292 244,282 251,282"/>
</g>
<!-- 101&#45;&gt;19 -->
<g id="edge32" class="edge"><title>101-&gt;19</title>
<path style="fill:none;stroke:black;" d="M232,325C222,335 209,348 197,360"/>
<polygon style="fill:black;stroke:black;" points="200,362 190,367 195,357 200,362"/>
</g>
<!-- 43 -->
<g id="node34" class="node"><title>43</title>
<ellipse style="fill:none;stroke:black;" cx="103" cy="166" rx="27" ry="18"/>
<text text-anchor="middle" x="103" y="171">43</text>
</g>
<!-- 65 -->
<g id="node36" class="node"><title>65</title>
<ellipse style="fill:none;stroke:black;" cx="103" cy="238" rx="27" ry="18"/>
<text text-anchor="middle" x="103" y="243">65</text>
</g>
<!-- 43&#45;&gt;65 -->
<g id="edge34" class="edge"><title>43-&gt;65</title>
<path style="fill:none;stroke:black;" d="M103,184C103,192 103,201 103,210"/>
<polygon style="fill:black;stroke:black;" points="107,210 103,220 100,210 107,210"/>
</g>
<!-- 49 -->
<g id="node37" class="node"><title>49</title>
<ellipse style="fill:none;stroke:black;" cx="103" cy="310" rx="27" ry="18"/>
<text text-anchor="middle" x="103" y="315">49</text>
</g>
<!-- 65&#45;&gt;49 -->
<g id="edge35" class="edge"><title>65-&gt;49</title>
<path style="fill:none;stroke:black;" d="M103,256C103,264 103,273 103,282"/>
<polygon style="fill:black;stroke:black;" points="107,282 103,292 100,282 107,282"/>
</g>
<!-- 49&#45;&gt;37 -->
<g id="edge36" class="edge"><title>49-&gt;37</title>
<path style="fill:none;stroke:black;" d="M103,328C103,336 103,345 103,354"/>
<polygon style="fill:black;stroke:black;" points="107,354 103,364 100,354 107,354"/>
</g>
<!-- 45 -->
<g id="node38" class="node"><title>45</title>
<ellipse style="fill:none;stroke:black;" cx="211" cy="526" rx="27" ry="18"/>
<text text-anchor="middle" x="211" y="531">45</text>
</g>
<!-- 45&#45;&gt;17 -->
<g id="edge38" class="edge"><title>45-&gt;17</title>
<path style="fill:none;stroke:black;" d="M211,544C211,552 211,561 211,570"/>
<polygon style="fill:black;stroke:black;" points="215,570 211,580 208,570 215,570"/>
</g>
</g>
</svg>